<mxfile host="app.diagrams.net" modified="2023-04-10T19:11:02.495Z" agent="Mozilla/5.0 (Macintosh; Intel Mac OS X 10_15_7) AppleWebKit/537.36 (KHTML, like Gecko) Chrome/112.0.0.0 Safari/537.36 Edg/112.0.1722.34" etag="t4BnAnE2J8U9CbEmpEF5" version="21.1.5" type="github">
  <diagram name="Account" id="2cc2dc42-3aac-f2a9-1cec-7a8b7cbee084">
    <mxGraphModel dx="780" dy="454" grid="1" gridSize="10" guides="1" tooltips="1" connect="1" arrows="1" fold="1" page="1" pageScale="1" pageWidth="1100" pageHeight="850" background="none" math="0" shadow="0">
      <root>
        <mxCell id="0" />
        <mxCell id="1" parent="0" />
        <mxCell id="IM1SlKHi9rK-Wiv3EAe7-1" value="" style="strokeWidth=1;shadow=0;dashed=0;align=center;html=1;shape=mxgraph.mockup.forms.rrect;rSize=0;strokeColor=#999999;fillColor=#ffffff;" parent="1" vertex="1">
          <mxGeometry x="30" y="51" width="200" height="300" as="geometry" />
        </mxCell>
        <mxCell id="IM1SlKHi9rK-Wiv3EAe7-2" value="Login" style="strokeWidth=1;shadow=0;dashed=0;align=center;html=1;shape=mxgraph.mockup.forms.anchor;fontSize=12;fontColor=#666666;align=left;resizeWidth=1;spacingLeft=0;" parent="IM1SlKHi9rK-Wiv3EAe7-1" vertex="1">
          <mxGeometry width="100" height="20" relative="1" as="geometry">
            <mxPoint x="10" y="10" as="offset" />
          </mxGeometry>
        </mxCell>
        <mxCell id="IM1SlKHi9rK-Wiv3EAe7-3" value="" style="shape=line;strokeColor=#ddeeff;strokeWidth=2;html=1;resizeWidth=1;" parent="IM1SlKHi9rK-Wiv3EAe7-1" vertex="1">
          <mxGeometry width="180" height="10" relative="1" as="geometry">
            <mxPoint x="10" y="30" as="offset" />
          </mxGeometry>
        </mxCell>
        <mxCell id="IM1SlKHi9rK-Wiv3EAe7-4" value="username / email :" style="strokeWidth=1;shadow=0;dashed=0;align=center;html=1;shape=mxgraph.mockup.forms.anchor;fontSize=12;fontColor=#666666;align=left;resizeWidth=1;spacingLeft=0;" parent="IM1SlKHi9rK-Wiv3EAe7-1" vertex="1">
          <mxGeometry width="120" height="20" relative="1" as="geometry">
            <mxPoint x="11" y="40" as="offset" />
          </mxGeometry>
        </mxCell>
        <mxCell id="IM1SlKHi9rK-Wiv3EAe7-5" value="username" style="strokeWidth=1;shadow=0;dashed=0;align=center;html=1;shape=mxgraph.mockup.forms.rrect;rSize=0;strokeColor=#999999;fontColor=#666666;align=left;spacingLeft=5;resizeWidth=1;" parent="IM1SlKHi9rK-Wiv3EAe7-1" vertex="1">
          <mxGeometry width="150" height="25" relative="1" as="geometry">
            <mxPoint x="10" y="60" as="offset" />
          </mxGeometry>
        </mxCell>
        <mxCell id="IM1SlKHi9rK-Wiv3EAe7-6" value="Password:" style="strokeWidth=1;shadow=0;dashed=0;align=center;html=1;shape=mxgraph.mockup.forms.anchor;fontSize=12;fontColor=#666666;align=left;resizeWidth=1;spacingLeft=0;" parent="IM1SlKHi9rK-Wiv3EAe7-1" vertex="1">
          <mxGeometry width="100" height="20" relative="1" as="geometry">
            <mxPoint x="10" y="95" as="offset" />
          </mxGeometry>
        </mxCell>
        <mxCell id="IM1SlKHi9rK-Wiv3EAe7-7" value="********" style="strokeWidth=1;shadow=0;dashed=0;align=center;html=1;shape=mxgraph.mockup.forms.rrect;rSize=0;strokeColor=#999999;fontColor=#666666;align=left;spacingLeft=5;resizeWidth=1;" parent="IM1SlKHi9rK-Wiv3EAe7-1" vertex="1">
          <mxGeometry width="150" height="25" relative="1" as="geometry">
            <mxPoint x="10" y="115" as="offset" />
          </mxGeometry>
        </mxCell>
        <object label="&lt;span style=&quot;white-space: pre;&quot;&gt;L&lt;/span&gt;OG IN" id="IM1SlKHi9rK-Wiv3EAe7-8">
          <mxCell style="strokeWidth=1;shadow=0;dashed=0;align=center;html=1;shape=mxgraph.mockup.forms.rrect;rSize=5;strokeColor=none;fontColor=#ffffff;fillColor=#66bbff;fontSize=16;fontStyle=1;" parent="IM1SlKHi9rK-Wiv3EAe7-1" vertex="1">
            <mxGeometry y="1" width="80" height="30" relative="1" as="geometry">
              <mxPoint x="120" y="-151" as="offset" />
            </mxGeometry>
          </mxCell>
        </object>
        <mxCell id="IM1SlKHi9rK-Wiv3EAe7-9" value="Forgot Password?" style="strokeWidth=1;shadow=0;dashed=0;align=center;html=1;shape=mxgraph.mockup.forms.anchor;fontSize=12;fontColor=#9999ff;align=left;spacingLeft=0;fontStyle=4;resizeWidth=1;" parent="IM1SlKHi9rK-Wiv3EAe7-1" vertex="1">
          <mxGeometry y="1" width="150" height="20" relative="1" as="geometry">
            <mxPoint x="10" y="-110" as="offset" />
          </mxGeometry>
        </mxCell>
        <mxCell id="IM1SlKHi9rK-Wiv3EAe7-10" value="" style="shape=line;strokeColor=#ddeeff;strokeWidth=2;html=1;resizeWidth=1;" parent="IM1SlKHi9rK-Wiv3EAe7-1" vertex="1">
          <mxGeometry y="1" width="180" height="10" relative="1" as="geometry">
            <mxPoint x="10" y="-80" as="offset" />
          </mxGeometry>
        </mxCell>
        <mxCell id="IM1SlKHi9rK-Wiv3EAe7-11" value="New to DRP?" style="strokeWidth=1;shadow=0;dashed=0;align=center;html=1;shape=mxgraph.mockup.forms.anchor;fontSize=12;fontColor=#666666;align=left;spacingLeft=0;resizeWidth=1;" parent="IM1SlKHi9rK-Wiv3EAe7-1" vertex="1">
          <mxGeometry y="1" width="150" height="20" relative="1" as="geometry">
            <mxPoint x="10" y="-70" as="offset" />
          </mxGeometry>
        </mxCell>
        <mxCell id="IM1SlKHi9rK-Wiv3EAe7-12" value="SIGN UP" style="strokeWidth=1;shadow=0;dashed=0;align=center;html=1;shape=mxgraph.mockup.forms.rrect;rSize=5;strokeColor=none;fontColor=#ffffff;fillColor=#66bbff;fontSize=16;fontStyle=1;" parent="IM1SlKHi9rK-Wiv3EAe7-1" vertex="1">
          <mxGeometry y="1" width="80" height="30" relative="1" as="geometry">
            <mxPoint x="10" y="-50" as="offset" />
          </mxGeometry>
        </mxCell>
        <mxCell id="YNlmRJPS4_Z9HtqUaXB7-1" value="&lt;p style=&quot;line-height: 110%;&quot;&gt;&lt;font style=&quot;font-size: 10px;&quot;&gt;Keep me logged in&lt;/font&gt;&lt;/p&gt;" style="strokeWidth=1;shadow=0;dashed=0;align=center;html=1;shape=mxgraph.mockup.forms.rrect;rSize=0;fillColor=#eeeeee;strokeColor=#999999;gradientColor=#cccccc;align=left;spacingLeft=4;fontSize=17;fontColor=#666666;labelPosition=right;" vertex="1" parent="IM1SlKHi9rK-Wiv3EAe7-1">
          <mxGeometry x="10" y="168.99888888888893" width="10" height="7.777777777777777" as="geometry" />
        </mxCell>
        <mxCell id="YNlmRJPS4_Z9HtqUaXB7-2" value="&lt;p style=&quot;line-height: 110%;&quot;&gt;&lt;font style=&quot;font-size: 10px;&quot;&gt;Remember me&lt;/font&gt;&lt;/p&gt;" style="strokeWidth=1;shadow=0;dashed=0;align=center;html=1;shape=mxgraph.mockup.forms.rrect;rSize=0;fillColor=#eeeeee;strokeColor=#999999;gradientColor=#cccccc;align=left;spacingLeft=4;fontSize=17;fontColor=#666666;labelPosition=right;" vertex="1" parent="IM1SlKHi9rK-Wiv3EAe7-1">
          <mxGeometry x="10" y="148.99888888888893" width="10" height="7.777777777777777" as="geometry" />
        </mxCell>
        <mxCell id="IM1SlKHi9rK-Wiv3EAe7-13" value="" style="strokeWidth=1;shadow=0;dashed=0;align=center;html=1;shape=mxgraph.mockup.forms.rrect;rSize=0;strokeColor=#999999;fillColor=#ffffff;" parent="1" vertex="1">
          <mxGeometry x="280" y="51" width="200" height="380" as="geometry" />
        </mxCell>
        <mxCell id="IM1SlKHi9rK-Wiv3EAe7-14" value="" style="shape=line;strokeColor=#ddeeff;strokeWidth=2;html=1;resizeWidth=1;" parent="IM1SlKHi9rK-Wiv3EAe7-13" vertex="1">
          <mxGeometry y="1" width="180" height="10" relative="1" as="geometry">
            <mxPoint x="10" y="-15" as="offset" />
          </mxGeometry>
        </mxCell>
        <mxCell id="IM1SlKHi9rK-Wiv3EAe7-15" value="SIGN UP" style="strokeWidth=1;shadow=0;dashed=0;align=center;html=1;shape=mxgraph.mockup.forms.rrect;rSize=5;strokeColor=none;fontColor=#ffffff;fillColor=#66bbff;fontSize=16;fontStyle=1;" parent="IM1SlKHi9rK-Wiv3EAe7-13" vertex="1">
          <mxGeometry y="1" width="80" height="30" relative="1" as="geometry">
            <mxPoint x="10" y="-50" as="offset" />
          </mxGeometry>
        </mxCell>
        <mxCell id="IM1SlKHi9rK-Wiv3EAe7-16" value="&lt;p style=&quot;line-height: 110%;&quot;&gt;&lt;font style=&quot;font-size: 10px;&quot;&gt;Accept terms and conditions&amp;nbsp;&amp;nbsp;&lt;/font&gt;&lt;/p&gt;" style="strokeWidth=1;shadow=0;dashed=0;align=center;html=1;shape=mxgraph.mockup.forms.rrect;rSize=0;fillColor=#eeeeee;strokeColor=#999999;gradientColor=#cccccc;align=left;spacingLeft=4;fontSize=17;fontColor=#666666;labelPosition=right;" parent="IM1SlKHi9rK-Wiv3EAe7-13" vertex="1">
          <mxGeometry x="10" y="279.9988888888889" width="10" height="7.777777777777777" as="geometry" />
        </mxCell>
        <mxCell id="IM1SlKHi9rK-Wiv3EAe7-17" value="Sign Up" style="strokeWidth=1;shadow=0;dashed=0;align=center;html=1;shape=mxgraph.mockup.forms.anchor;fontSize=12;fontColor=#666666;align=left;resizeWidth=1;spacingLeft=0;" parent="IM1SlKHi9rK-Wiv3EAe7-13" vertex="1">
          <mxGeometry x="10" y="10" width="100" height="20" as="geometry" />
        </mxCell>
        <mxCell id="IM1SlKHi9rK-Wiv3EAe7-18" value="Email:" style="strokeWidth=1;shadow=0;dashed=0;align=center;html=1;shape=mxgraph.mockup.forms.anchor;fontSize=12;fontColor=#666666;align=left;resizeWidth=1;spacingLeft=0;" parent="IM1SlKHi9rK-Wiv3EAe7-13" vertex="1">
          <mxGeometry x="10" y="155" width="100" height="20" as="geometry" />
        </mxCell>
        <mxCell id="IM1SlKHi9rK-Wiv3EAe7-19" value="user@hotmail.com" style="strokeWidth=1;shadow=0;dashed=0;align=center;html=1;shape=mxgraph.mockup.forms.rrect;rSize=0;strokeColor=#999999;fontColor=#666666;align=left;spacingLeft=5;resizeWidth=1;" parent="IM1SlKHi9rK-Wiv3EAe7-13" vertex="1">
          <mxGeometry x="10" y="175" width="150" height="25" as="geometry" />
        </mxCell>
        <mxCell id="IM1SlKHi9rK-Wiv3EAe7-20" value="Username:" style="strokeWidth=1;shadow=0;dashed=0;align=center;html=1;shape=mxgraph.mockup.forms.anchor;fontSize=12;fontColor=#666666;align=left;resizeWidth=1;spacingLeft=0;" parent="IM1SlKHi9rK-Wiv3EAe7-13" vertex="1">
          <mxGeometry x="10" y="100" width="100" height="20" as="geometry" />
        </mxCell>
        <mxCell id="IM1SlKHi9rK-Wiv3EAe7-21" value="username" style="strokeWidth=1;shadow=0;dashed=0;align=center;html=1;shape=mxgraph.mockup.forms.rrect;rSize=0;strokeColor=#999999;fontColor=#666666;align=left;spacingLeft=5;resizeWidth=1;" parent="IM1SlKHi9rK-Wiv3EAe7-13" vertex="1">
          <mxGeometry x="10" y="120" width="150" height="25" as="geometry" />
        </mxCell>
        <mxCell id="IM1SlKHi9rK-Wiv3EAe7-22" value="Full Name" style="strokeWidth=1;shadow=0;dashed=0;align=center;html=1;shape=mxgraph.mockup.forms.anchor;fontSize=12;fontColor=#666666;align=left;resizeWidth=1;spacingLeft=0;" parent="IM1SlKHi9rK-Wiv3EAe7-13" vertex="1">
          <mxGeometry x="10" y="49.995555555555484" width="100" height="15.555555555555554" as="geometry" />
        </mxCell>
        <mxCell id="IM1SlKHi9rK-Wiv3EAe7-23" value="John Doe" style="strokeWidth=1;shadow=0;dashed=0;align=center;html=1;shape=mxgraph.mockup.forms.rrect;rSize=0;strokeColor=#999999;fontColor=#666666;align=left;spacingLeft=5;resizeWidth=1;" parent="IM1SlKHi9rK-Wiv3EAe7-13" vertex="1">
          <mxGeometry x="10" y="70.00111111111107" width="150" height="19.444444444444443" as="geometry" />
        </mxCell>
        <mxCell id="IM1SlKHi9rK-Wiv3EAe7-24" value="Password:" style="strokeWidth=1;shadow=0;dashed=0;align=center;html=1;shape=mxgraph.mockup.forms.anchor;fontSize=12;fontColor=#666666;align=left;resizeWidth=1;spacingLeft=0;" parent="IM1SlKHi9rK-Wiv3EAe7-13" vertex="1">
          <mxGeometry x="10" y="209.9988888888888" width="100" height="15.555555555555554" as="geometry" />
        </mxCell>
        <mxCell id="IM1SlKHi9rK-Wiv3EAe7-25" value="********" style="strokeWidth=1;shadow=0;dashed=0;align=center;html=1;shape=mxgraph.mockup.forms.rrect;rSize=0;strokeColor=#999999;fontColor=#666666;align=left;spacingLeft=5;resizeWidth=1;" parent="IM1SlKHi9rK-Wiv3EAe7-13" vertex="1">
          <mxGeometry x="10" y="230.00444444444452" width="150" height="19.444444444444443" as="geometry" />
        </mxCell>
        <mxCell id="IM1SlKHi9rK-Wiv3EAe7-26" value="&lt;p style=&quot;line-height: 110%;&quot;&gt;&lt;font style=&quot;font-size: 10px;&quot;&gt;Accept KVKK&amp;nbsp;&amp;nbsp;&lt;/font&gt;&lt;/p&gt;" style="strokeWidth=1;shadow=0;dashed=0;align=center;html=1;shape=mxgraph.mockup.forms.rrect;rSize=0;fillColor=#eeeeee;strokeColor=#999999;gradientColor=#cccccc;align=left;spacingLeft=4;fontSize=17;fontColor=#666666;labelPosition=right;" parent="IM1SlKHi9rK-Wiv3EAe7-13" vertex="1">
          <mxGeometry x="10" y="259.9988888888889" width="10" height="7.777777777777777" as="geometry" />
        </mxCell>
        <mxCell id="IM1SlKHi9rK-Wiv3EAe7-27" value="&lt;p style=&quot;line-height: 110%;&quot;&gt;&lt;font style=&quot;font-size: 10px;&quot;&gt;DRP can send me notifications&amp;nbsp;&amp;nbsp;&lt;/font&gt;&lt;/p&gt;" style="strokeWidth=1;shadow=0;dashed=0;align=center;html=1;shape=mxgraph.mockup.forms.rrect;rSize=0;fillColor=#eeeeee;strokeColor=#999999;gradientColor=#cccccc;align=left;spacingLeft=4;fontSize=17;fontColor=#666666;labelPosition=right;" parent="IM1SlKHi9rK-Wiv3EAe7-13" vertex="1">
          <mxGeometry x="10" y="299.9988888888889" width="10" height="7.777777777777777" as="geometry" />
        </mxCell>
        <mxCell id="IM1SlKHi9rK-Wiv3EAe7-28" value="" style="shape=line;strokeColor=#ddeeff;strokeWidth=2;html=1;resizeWidth=1;" parent="IM1SlKHi9rK-Wiv3EAe7-13" vertex="1">
          <mxGeometry x="10" y="35" width="180" height="10" as="geometry" />
        </mxCell>
        <object label="&lt;span style=&quot;white-space: pre;&quot;&gt;Back Login &lt;br/&gt;Page&lt;br/&gt;&lt;/span&gt;" id="YNlmRJPS4_Z9HtqUaXB7-3">
          <mxCell style="strokeWidth=1;shadow=0;dashed=0;align=center;html=1;shape=mxgraph.mockup.forms.rrect;rSize=5;strokeColor=none;fontColor=#ffffff;fillColor=#66bbff;fontSize=16;fontStyle=1;" vertex="1" parent="IM1SlKHi9rK-Wiv3EAe7-13">
            <mxGeometry x="100" y="329" width="90" height="40" as="geometry" />
          </mxCell>
        </object>
        <mxCell id="IM1SlKHi9rK-Wiv3EAe7-29" value="" style="strokeWidth=1;shadow=0;dashed=0;align=center;html=1;shape=mxgraph.mockup.forms.rrect;rSize=0;strokeColor=#999999;fillColor=#ffffff;" parent="1" vertex="1">
          <mxGeometry x="520" y="50" width="210" height="300" as="geometry" />
        </mxCell>
        <mxCell id="IM1SlKHi9rK-Wiv3EAe7-30" value="&lt;font color=&quot;#ff3399&quot; style=&quot;font-size: 16px;&quot;&gt;Forgot password?&lt;/font&gt;" style="strokeWidth=1;shadow=0;dashed=0;align=center;html=1;shape=mxgraph.mockup.forms.anchor;fontSize=12;fontColor=#666666;align=left;resizeWidth=1;spacingLeft=0;" parent="IM1SlKHi9rK-Wiv3EAe7-29" vertex="1">
          <mxGeometry width="105" height="20" relative="1" as="geometry">
            <mxPoint x="40" y="20" as="offset" />
          </mxGeometry>
        </mxCell>
        <mxCell id="IM1SlKHi9rK-Wiv3EAe7-31" value="" style="shape=line;strokeColor=#ddeeff;strokeWidth=2;html=1;resizeWidth=1;" parent="IM1SlKHi9rK-Wiv3EAe7-29" vertex="1">
          <mxGeometry width="189" height="10" relative="1" as="geometry">
            <mxPoint x="11" y="50" as="offset" />
          </mxGeometry>
        </mxCell>
        <mxCell id="IM1SlKHi9rK-Wiv3EAe7-32" value="" style="strokeWidth=1;shadow=0;dashed=0;align=center;html=1;shape=mxgraph.mockup.forms.anchor;fontSize=12;fontColor=#666666;align=left;resizeWidth=1;spacingLeft=0;" parent="IM1SlKHi9rK-Wiv3EAe7-29" vertex="1">
          <mxGeometry width="84" height="40" relative="1" as="geometry">
            <mxPoint x="30" y="70" as="offset" />
          </mxGeometry>
        </mxCell>
        <mxCell id="IM1SlKHi9rK-Wiv3EAe7-33" value="" style="shape=line;strokeColor=#ddeeff;strokeWidth=2;html=1;resizeWidth=1;" parent="IM1SlKHi9rK-Wiv3EAe7-29" vertex="1">
          <mxGeometry y="1" width="189" height="10" relative="1" as="geometry">
            <mxPoint x="5" y="-30" as="offset" />
          </mxGeometry>
        </mxCell>
        <mxCell id="IM1SlKHi9rK-Wiv3EAe7-34" value="RESET PASSWORD" style="strokeWidth=1;shadow=0;dashed=0;align=center;html=1;shape=mxgraph.mockup.forms.rrect;rSize=5;strokeColor=none;fontColor=#ffffff;fillColor=#66bbff;fontSize=16;fontStyle=1;" parent="IM1SlKHi9rK-Wiv3EAe7-29" vertex="1">
          <mxGeometry y="1" width="160" height="30" relative="1" as="geometry">
            <mxPoint x="10" y="-100" as="offset" />
          </mxGeometry>
        </mxCell>
        <mxCell id="IM1SlKHi9rK-Wiv3EAe7-35" value="&lt;font style=&quot;font-size: 10px;&quot;&gt;Enter the email address or mobile number you use on DRP. We&#39;ll send you a link to reset your password.&lt;/font&gt;" style="text;html=1;strokeColor=none;fillColor=none;align=center;verticalAlign=middle;whiteSpace=wrap;rounded=0;" parent="IM1SlKHi9rK-Wiv3EAe7-29" vertex="1">
          <mxGeometry x="5" y="70" width="200" height="50" as="geometry" />
        </mxCell>
        <mxCell id="IM1SlKHi9rK-Wiv3EAe7-36" value="Email / Mobile Number:" style="strokeWidth=1;shadow=0;dashed=0;align=center;html=1;shape=mxgraph.mockup.forms.anchor;fontSize=12;fontColor=#666666;align=left;resizeWidth=1;spacingLeft=0;" parent="IM1SlKHi9rK-Wiv3EAe7-29" vertex="1">
          <mxGeometry x="10" y="135" width="170" height="20" as="geometry" />
        </mxCell>
        <mxCell id="IM1SlKHi9rK-Wiv3EAe7-37" value="0(*** *** ** **) / email@***.com" style="strokeWidth=1;shadow=0;dashed=0;align=center;html=1;shape=mxgraph.mockup.forms.rrect;rSize=0;strokeColor=#999999;fontColor=#666666;align=left;spacingLeft=5;resizeWidth=1;" parent="IM1SlKHi9rK-Wiv3EAe7-29" vertex="1">
          <mxGeometry x="10" y="155" width="180" height="25" as="geometry" />
        </mxCell>
        <mxCell id="IM1SlKHi9rK-Wiv3EAe7-38" value="" style="strokeWidth=1;shadow=0;dashed=0;align=center;html=1;shape=mxgraph.mockup.forms.anchor;fontSize=12;fontColor=#666666;align=left;resizeWidth=1;spacingLeft=0;" parent="IM1SlKHi9rK-Wiv3EAe7-29" vertex="1">
          <mxGeometry x="10" y="180" width="115" height="20" as="geometry" />
        </mxCell>
        <mxCell id="IM1SlKHi9rK-Wiv3EAe7-39" value="" style="strokeWidth=1;shadow=0;dashed=0;align=center;html=1;shape=mxgraph.mockup.forms.rrect;rSize=0;strokeColor=#999999;fillColor=#ffffff;" parent="1" vertex="1">
          <mxGeometry x="780" y="50" width="200" height="300" as="geometry" />
        </mxCell>
        <mxCell id="IM1SlKHi9rK-Wiv3EAe7-40" value="Change Password" style="strokeWidth=1;shadow=0;dashed=0;align=center;html=1;shape=mxgraph.mockup.forms.anchor;fontSize=12;fontColor=#666666;align=left;resizeWidth=1;spacingLeft=0;" parent="IM1SlKHi9rK-Wiv3EAe7-39" vertex="1">
          <mxGeometry width="100" height="20" relative="1" as="geometry">
            <mxPoint x="10" y="10" as="offset" />
          </mxGeometry>
        </mxCell>
        <mxCell id="IM1SlKHi9rK-Wiv3EAe7-41" value="" style="shape=line;strokeColor=#ddeeff;strokeWidth=2;html=1;resizeWidth=1;" parent="IM1SlKHi9rK-Wiv3EAe7-39" vertex="1">
          <mxGeometry width="180" height="10" relative="1" as="geometry">
            <mxPoint x="10" y="30" as="offset" />
          </mxGeometry>
        </mxCell>
        <mxCell id="IM1SlKHi9rK-Wiv3EAe7-42" value="New password:" style="strokeWidth=1;shadow=0;dashed=0;align=center;html=1;shape=mxgraph.mockup.forms.anchor;fontSize=12;fontColor=#666666;align=left;resizeWidth=1;spacingLeft=0;" parent="IM1SlKHi9rK-Wiv3EAe7-39" vertex="1">
          <mxGeometry width="120" height="20" relative="1" as="geometry">
            <mxPoint x="11" y="40" as="offset" />
          </mxGeometry>
        </mxCell>
        <mxCell id="IM1SlKHi9rK-Wiv3EAe7-43" value="********" style="strokeWidth=1;shadow=0;dashed=0;align=center;html=1;shape=mxgraph.mockup.forms.rrect;rSize=0;strokeColor=#999999;fontColor=#666666;align=left;spacingLeft=5;resizeWidth=1;" parent="IM1SlKHi9rK-Wiv3EAe7-39" vertex="1">
          <mxGeometry width="150" height="25" relative="1" as="geometry">
            <mxPoint x="10" y="60" as="offset" />
          </mxGeometry>
        </mxCell>
        <mxCell id="IM1SlKHi9rK-Wiv3EAe7-44" value="Repeat Password:" style="strokeWidth=1;shadow=0;dashed=0;align=center;html=1;shape=mxgraph.mockup.forms.anchor;fontSize=12;fontColor=#666666;align=left;resizeWidth=1;spacingLeft=0;" parent="IM1SlKHi9rK-Wiv3EAe7-39" vertex="1">
          <mxGeometry width="110" height="20" relative="1" as="geometry">
            <mxPoint x="10" y="95" as="offset" />
          </mxGeometry>
        </mxCell>
        <mxCell id="IM1SlKHi9rK-Wiv3EAe7-45" value="********" style="strokeWidth=1;shadow=0;dashed=0;align=center;html=1;shape=mxgraph.mockup.forms.rrect;rSize=0;strokeColor=#999999;fontColor=#666666;align=left;spacingLeft=5;resizeWidth=1;" parent="IM1SlKHi9rK-Wiv3EAe7-39" vertex="1">
          <mxGeometry width="150" height="25" relative="1" as="geometry">
            <mxPoint x="10" y="115" as="offset" />
          </mxGeometry>
        </mxCell>
        <mxCell id="IM1SlKHi9rK-Wiv3EAe7-46" value="Back to the Login Page" style="strokeWidth=1;shadow=0;dashed=0;align=center;html=1;shape=mxgraph.mockup.forms.anchor;fontSize=12;fontColor=#9999ff;align=left;spacingLeft=0;fontStyle=4;resizeWidth=1;" parent="IM1SlKHi9rK-Wiv3EAe7-39" vertex="1">
          <mxGeometry y="1" width="150" height="20" relative="1" as="geometry">
            <mxPoint x="8" y="-90" as="offset" />
          </mxGeometry>
        </mxCell>
        <mxCell id="IM1SlKHi9rK-Wiv3EAe7-47" value="" style="shape=line;strokeColor=#ddeeff;strokeWidth=2;html=1;resizeWidth=1;" parent="IM1SlKHi9rK-Wiv3EAe7-39" vertex="1">
          <mxGeometry y="1" width="180" height="10" relative="1" as="geometry">
            <mxPoint x="10" y="-30" as="offset" />
          </mxGeometry>
        </mxCell>
        <mxCell id="IM1SlKHi9rK-Wiv3EAe7-48" value="CHANGE PASSWORD" style="strokeWidth=1;shadow=0;dashed=0;align=center;html=1;shape=mxgraph.mockup.forms.rrect;rSize=5;strokeColor=none;fontColor=#ffffff;fillColor=#66bbff;fontSize=16;fontStyle=1;" parent="IM1SlKHi9rK-Wiv3EAe7-39" vertex="1">
          <mxGeometry x="8" y="160" width="170" height="30" as="geometry" />
        </mxCell>
      </root>
    </mxGraphModel>
  </diagram>
</mxfile>
